<svg width="24" height="20" viewBox="0 0 24 20" fill="none" xmlns="http://www.w3.org/2000/svg">
<path d="M23.0001 1.01006C22.0425 1.68553 20.9822 2.20217 19.8601 2.54006C19.2578 1.84757 18.4574 1.35675 17.5671 1.13398C16.6768 0.911216 15.7396 0.967251 14.8822 1.29451C14.0248 1.62177 13.2885 2.20446 12.7731 2.96377C12.2576 3.72309 11.9878 4.62239 12.0001 5.54006V6.54006C10.2427 6.58562 8.50137 6.19587 6.9311 5.4055C5.36084 4.61513 4.01041 3.44869 3.00009 2.01006C3.00009 2.01006 -0.999908 11.0101 8.00009 15.0101C5.94062 16.408 3.48725 17.109 1.00009 17.0101C10.0001 22.0101 21.0001 17.0101 21.0001 5.51006C20.9992 5.23151 20.9724 4.95365 20.9201 4.68006C21.9407 3.67355 22.6609 2.40277 23.0001 1.01006V1.01006Z" stroke="#6C5CE7" stroke-width="2" stroke-linecap="round" stroke-linejoin="round"/>
</svg>
