<svg width="103" height="67" viewBox="0 0 103 67" fill="none" xmlns="http://www.w3.org/2000/svg">
<g clip-path="url(#clip0_11_1709)">
<path d="M89.7932 58.5938C89.7932 59.9236 90.8713 61.0017 92.2012 61.0017C93.531 61.0017 94.6091 59.9236 94.6091 58.5938C94.6091 57.2639 93.531 56.1858 92.2012 56.1858C90.8713 56.1858 89.7932 57.2639 89.7932 58.5938Z" fill="#A29BFE"/>
<path d="M97.8198 66.6204C97.8198 67.9503 98.8979 69.0283 100.228 69.0283C101.558 69.0283 102.636 67.9503 102.636 66.6204C102.636 65.2905 101.558 64.2124 100.228 64.2124C98.8979 64.2124 97.8198 65.2905 97.8198 66.6204Z" fill="#A29BFE"/>
<path d="M73.7401 42.5408C73.7401 43.8707 74.8182 44.9487 76.1481 44.9487C77.4779 44.9487 78.556 43.8707 78.556 42.5408C78.556 41.2109 77.4779 40.1328 76.1481 40.1328C74.8182 40.1328 73.7401 41.2109 73.7401 42.5408Z" fill="#A29BFE"/>
<path d="M81.7667 50.5674C81.7667 51.8973 82.8448 52.9754 84.1747 52.9754C85.5046 52.9754 86.5826 51.8973 86.5826 50.5674C86.5826 49.2375 85.5046 48.1594 84.1747 48.1594C82.8448 48.1594 81.7667 49.2375 81.7667 50.5674Z" fill="#A29BFE"/>
<path d="M73.7401 58.5938C73.7401 59.9236 74.8182 61.0017 76.1481 61.0017C77.4779 61.0017 78.556 59.9236 78.556 58.5938C78.556 57.2639 77.4779 56.1858 76.1481 56.1858C74.8182 56.1858 73.7401 57.2639 73.7401 58.5938Z" fill="#A29BFE"/>
<path d="M81.7667 66.6204C81.7667 67.9503 82.8448 69.0283 84.1747 69.0283C85.5046 69.0283 86.5826 67.9503 86.5826 66.6204C86.5826 65.2905 85.5046 64.2124 84.1747 64.2124C82.8448 64.2124 81.7667 65.2905 81.7667 66.6204Z" fill="#A29BFE"/>
<path d="M57.687 26.4876C57.687 27.8174 58.7651 28.8955 60.095 28.8955C61.4248 28.8955 62.5029 27.8174 62.5029 26.4876C62.5029 25.1577 61.4248 24.0796 60.095 24.0796C58.7651 24.0796 57.687 25.1577 57.687 26.4876Z" fill="#A29BFE"/>
<path d="M65.7136 34.5142C65.7136 35.8441 66.7917 36.9221 68.1216 36.9221C69.4515 36.9221 70.5295 35.8441 70.5295 34.5142C70.5295 33.1843 69.4515 32.1062 68.1216 32.1062C66.7917 32.1062 65.7136 33.1843 65.7136 34.5142Z" fill="#A29BFE"/>
<path d="M57.687 42.5408C57.687 43.8707 58.7651 44.9487 60.095 44.9487C61.4248 44.9487 62.5029 43.8707 62.5029 42.5408C62.5029 41.2109 61.4248 40.1328 60.095 40.1328C58.7651 40.1328 57.687 41.2109 57.687 42.5408Z" fill="#A29BFE"/>
<path d="M65.7136 50.5674C65.7136 51.8973 66.7917 52.9754 68.1216 52.9754C69.4515 52.9754 70.5295 51.8973 70.5295 50.5674C70.5295 49.2375 69.4515 48.1594 68.1216 48.1594C66.7917 48.1594 65.7136 49.2375 65.7136 50.5674Z" fill="#A29BFE"/>
<path d="M57.687 58.5938C57.687 59.9236 58.7651 61.0017 60.095 61.0017C61.4248 61.0017 62.5029 59.9236 62.5029 58.5938C62.5029 57.2639 61.4248 56.1858 60.095 56.1858C58.7651 56.1858 57.687 57.2639 57.687 58.5938Z" fill="#A29BFE"/>
<path d="M65.7136 66.6204C65.7136 67.9503 66.7917 69.0283 68.1216 69.0283C69.4515 69.0283 70.5295 67.9503 70.5295 66.6204C70.5295 65.2905 69.4515 64.2124 68.1216 64.2124C66.7917 64.2124 65.7136 65.2905 65.7136 66.6204Z" fill="#A29BFE"/>
<path d="M49.6605 34.5142C49.6605 35.8441 50.7386 36.9221 52.0685 36.9221C53.3984 36.9221 54.4764 35.8441 54.4764 34.5142C54.4764 33.1843 53.3984 32.1062 52.0685 32.1062C50.7386 32.1062 49.6605 33.1843 49.6605 34.5142Z" fill="#A29BFE"/>
<path d="M41.6339 42.5408C41.6339 43.8707 42.712 44.9487 44.0419 44.9487C45.3717 44.9487 46.4498 43.8707 46.4498 42.5408C46.4498 41.2109 45.3717 40.1328 44.0419 40.1328C42.712 40.1328 41.6339 41.2109 41.6339 42.5408Z" fill="#A29BFE"/>
<path d="M49.6605 50.5674C49.6605 51.8973 50.7386 52.9754 52.0685 52.9754C53.3984 52.9754 54.4764 51.8973 54.4764 50.5674C54.4764 49.2375 53.3984 48.1594 52.0685 48.1594C50.7386 48.1594 49.6605 49.2375 49.6605 50.5674Z" fill="#A29BFE"/>
<path d="M41.6339 58.5938C41.6339 59.9236 42.712 61.0017 44.0419 61.0017C45.3717 61.0017 46.4498 59.9236 46.4498 58.5938C46.4498 57.2639 45.3717 56.1858 44.0419 56.1858C42.712 56.1858 41.6339 57.2639 41.6339 58.5938Z" fill="#A29BFE"/>
<path d="M49.6605 66.6204C49.6605 67.9503 50.7386 69.0283 52.0685 69.0283C53.3984 69.0283 54.4764 67.9503 54.4764 66.6204C54.4764 65.2905 53.3984 64.2124 52.0685 64.2124C50.7386 64.2124 49.6605 65.2905 49.6605 66.6204Z" fill="#A29BFE"/>
<path d="M33.6074 50.5674C33.6074 51.8973 34.6855 52.9754 36.0154 52.9754C37.3453 52.9754 38.4233 51.8973 38.4233 50.5674C38.4233 49.2375 37.3453 48.1594 36.0154 48.1594C34.6855 48.1594 33.6074 49.2375 33.6074 50.5674Z" fill="#A29BFE"/>
<path d="M25.5808 58.5938C25.5808 59.9236 26.6589 61.0017 27.9888 61.0017C29.3186 61.0017 30.3967 59.9236 30.3967 58.5938C30.3967 57.2639 29.3186 56.1858 27.9888 56.1858C26.6589 56.1858 25.5808 57.2639 25.5808 58.5938Z" fill="#A29BFE"/>
<path d="M33.6074 66.6204C33.6074 67.9503 34.6855 69.0283 36.0154 69.0283C37.3453 69.0283 38.4233 67.9503 38.4233 66.6204C38.4233 65.2905 37.3453 64.2124 36.0154 64.2124C34.6855 64.2124 33.6074 65.2905 33.6074 66.6204Z" fill="#A29BFE"/>
<path d="M17.5542 66.6204C17.5542 67.9503 18.6323 69.0283 19.9622 69.0283C21.292 69.0283 22.3701 67.9503 22.3701 66.6204C22.3701 65.2905 21.292 64.2124 19.9622 64.2124C18.6323 64.2124 17.5542 65.2905 17.5542 66.6204Z" fill="#A29BFE"/>
</g>
<defs>
<clipPath id="clip0_11_1709">
<rect width="75.2662" height="102.636" fill="white" transform="translate(102.636) rotate(90)"/>
</clipPath>
</defs>
</svg>
