<svg width="42" height="42" viewBox="0 0 42 42" fill="none" xmlns="http://www.w3.org/2000/svg">
<path d="M29.4 15.75H12.6C11.4402 15.75 10.5 16.6902 10.5 17.85V28.35C10.5 29.5098 11.4402 30.45 12.6 30.45H29.4C30.5598 30.45 31.5 29.5098 31.5 28.35V17.85C31.5 16.6902 30.5598 15.75 29.4 15.75Z" stroke="white" stroke-width="2" stroke-linecap="round" stroke-linejoin="round"/>
<path d="M25.2 30.45V13.65C25.2 13.0931 24.9788 12.559 24.585 12.1651C24.1911 11.7713 23.657 11.55 23.1 11.55H18.9C18.3431 11.55 17.809 11.7713 17.4151 12.1651C17.0213 12.559 16.8 13.0931 16.8 13.65V30.45" stroke="white" stroke-width="2" stroke-linecap="round" stroke-linejoin="round"/>
</svg>
